<svg width="663" height="994" viewBox="0 0 663 994" fill="none" xmlns="http://www.w3.org/2000/svg">
<path d="M784.509 971.849L1447.29 308.931C1474.97 281.243 1474.97 236.35 1447.29 208.662L1273.23 34.5664C1251.74 13.0692 1222.6 1 1192.2 1H276.569C246.182 1 217.033 13.0784 195.54 34.5664L21.4802 208.662C-6.20174 236.35 -6.20174 281.243 21.4802 308.931L684.261 971.849C711.943 999.537 756.827 999.537 784.509 971.849ZM860.173 971.849L1522.95 308.931C1550.64 281.243 1550.64 236.35 1522.95 208.662L1348.89 34.5664C1327.4 13.0692 1298.26 1 1267.87 1H352.233C321.847 1 292.697 13.0784 271.205 34.5664L97.1449 208.662C69.4629 236.35 69.4629 281.243 97.1449 308.931L759.926 971.849C787.608 999.537 832.491 999.537 860.173 971.849ZM935.838 971.849L1598.62 308.931C1626.3 281.243 1626.3 236.35 1598.62 208.662L1424.56 34.5664C1403.07 13.0692 1373.93 1 1343.53 1H427.907C397.52 1 368.371 13.0784 346.879 34.5664L172.819 208.662C145.137 236.35 145.137 281.243 172.819 308.931L835.6 971.849C863.282 999.537 908.165 999.537 935.847 971.849H935.838ZM1011.5 971.849L1674.28 308.931C1701.97 281.243 1701.97 236.35 1674.28 208.662L1500.22 34.5664C1478.73 13.0692 1449.59 1 1419.19 1H503.563C473.176 1 444.027 13.0784 422.534 34.5664L248.474 208.662C220.792 236.35 220.792 281.243 248.474 308.931L911.255 971.849C938.937 999.537 983.821 999.537 1011.5 971.849ZM1087.18 971.849L1749.96 308.931C1777.64 281.243 1777.64 236.35 1749.96 208.662L1575.9 34.5664C1554.4 13.0692 1525.26 1 1494.87 1H579.227C548.84 1 519.691 13.0784 498.199 34.5664L324.139 208.662C296.457 236.35 296.457 281.243 324.139 308.931L986.92 971.849C1014.6 999.537 1059.49 999.537 1087.17 971.849H1087.18Z" stroke="white" stroke-miterlimit="10"/>
</svg>
