<svg width="663" height="994" viewBox="0 0 663 994" fill="none" xmlns="http://www.w3.org/2000/svg">
<path d="M784.51 971.849L1447.29 308.931C1474.97 281.243 1474.97 236.35 1447.29 208.662L1273.23 34.5664C1251.74 13.0692 1222.6 1 1192.2 1H276.571C246.184 1 217.035 13.0784 195.542 34.5664L21.4822 208.662C-6.19979 236.35 -6.19979 281.243 21.4822 308.931L684.263 971.849C711.945 999.537 756.829 999.537 784.51 971.849ZM860.175 971.849L1522.96 308.931C1550.64 281.243 1550.64 236.35 1522.96 208.662L1348.9 34.5664C1327.4 13.0692 1298.26 1 1267.87 1H352.235C321.848 1 292.699 13.0784 271.207 34.5664L97.1468 208.662C69.4649 236.35 69.4649 281.243 97.1468 308.931L759.928 971.849C787.61 999.537 832.493 999.537 860.175 971.849ZM935.84 971.849L1598.62 308.931C1626.3 281.243 1626.3 236.35 1598.62 208.662L1424.56 34.5664C1403.07 13.0692 1373.93 1 1343.53 1H427.909C397.522 1 368.373 13.0784 346.881 34.5664L172.821 208.662C145.139 236.35 145.139 281.243 172.821 308.931L835.602 971.849C863.284 999.537 908.167 999.537 935.849 971.849H935.84ZM1011.5 971.849L1674.29 308.931C1701.97 281.243 1701.97 236.35 1674.29 208.662L1500.23 34.5664C1478.73 13.0692 1449.59 1 1419.2 1H503.565C473.178 1 444.029 13.0784 422.536 34.5664L248.476 208.662C220.794 236.35 220.794 281.243 248.476 308.931L911.257 971.849C938.939 999.537 983.823 999.537 1011.5 971.849ZM1087.18 971.849L1749.96 308.931C1777.64 281.243 1777.64 236.35 1749.96 208.662L1575.9 34.5664C1554.41 13.0692 1525.27 1 1494.87 1H579.229C548.842 1 519.693 13.0784 498.201 34.5664L324.141 208.662C296.459 236.35 296.459 281.243 324.141 308.931L986.922 971.849C1014.6 999.537 1059.49 999.537 1087.17 971.849H1087.18Z" stroke="url(#paint0_linear_307_20580)" stroke-miterlimit="10"/>
<defs>
<linearGradient id="paint0_linear_307_20580" x1="1843.37" y1="34.9659" x2="885.721" y2="992.615" gradientUnits="userSpaceOnUse">
<stop stop-color="#89F5F4"/>
<stop offset="0.25" stop-color="#3A61FF"/>
<stop offset="1" stop-color="#3140A0"/>
</linearGradient>
</defs>
</svg>
