<svg width="273" height="28" viewBox="0 0 273 28" fill="none" xmlns="http://www.w3.org/2000/svg">
<g clip-path="url(#clip0_320_32485)">
<path d="M20.817 26.9344L38.4192 8.88509C39.1537 8.13186 39.1537 6.90962 38.4192 6.15638L33.7955 1.41525C33.2244 0.829719 32.4511 0.5 31.6444 0.5H7.32569C6.51904 0.5 5.74565 0.829719 5.17462 1.41525L0.550934 6.15354C-0.183645 6.90678 -0.183645 8.12901 0.550934 8.88225L18.1531 26.9315C18.8877 27.6848 20.0796 27.6848 20.8142 26.9315L20.817 26.9344Z" fill="url(#paint0_linear_320_32485)"/>
<path opacity="0.4" d="M5.04297 1.546C5.68053 0.892252 6.59251 0.610854 7.47401 0.79561L38.0408 7.16544C38.6506 7.29335 38.9362 7.95563 38.7116 8.48431C39.1274 7.74529 39.0304 6.7874 38.415 6.15354L33.7941 1.41525C33.2231 0.829719 32.4497 0.5 31.643 0.5H7.32432C6.51767 0.5 5.74428 0.829719 5.17325 1.41525L5.04574 1.546H5.04297Z" fill="url(#paint1_linear_320_32485)"/>
<path opacity="0.4" d="M32.2399 1.87288L30.4492 5.57938L38.0417 7.1626C38.6516 7.2905 38.9371 7.95278 38.7125 8.48147C39.1283 7.74245 39.0313 6.78456 38.4159 6.1507L33.795 1.41525C33.224 0.829719 32.4506 0.5 31.644 0.5H31.4083C32.0958 0.5 32.5448 1.24187 32.2399 1.87288Z" fill="url(#paint2_linear_320_32485)"/>
<path d="M38.7157 8.48413C38.943 7.9526 38.6547 7.29032 38.0449 7.16525L30.4524 5.58203L20.2597 26.6954C19.9742 27.2866 19.3283 27.5311 18.7656 27.3549C19.4475 27.6448 20.2625 27.5055 20.8169 26.937L38.4191 8.88775C38.5383 8.76552 38.6353 8.62909 38.7157 8.48697V8.48413Z" fill="url(#paint3_linear_320_32485)"/>
<path d="M62.5963 22.0735H59.4446V6.79844H53.8008V3.82812H68.2401V6.79844H62.5963V22.0764V22.0735Z" fill="white"/>
<path d="M82.958 22.0739L78.5727 15.7126H74.6448V22.0739H71.543V3.82568H79.4736C80.491 3.82568 81.4085 3.95928 82.2318 4.22931C83.0523 4.49933 83.7481 4.88022 84.3163 5.37764C84.8846 5.87221 85.3198 6.48049 85.6247 7.20246C85.9296 7.92443 86.0821 8.72883 86.0821 9.61282C86.0821 10.3774 85.9767 11.0596 85.7633 11.6593C85.5526 12.2591 85.2588 12.7906 84.8874 13.2483C84.5131 13.7087 84.0696 14.101 83.5513 14.4222C83.0329 14.7434 82.4619 14.9906 81.8354 15.164L86.6393 22.0739H82.9525H82.958ZM81.938 7.49239C81.2921 6.97791 80.3829 6.71925 79.2103 6.71925H74.6448V12.8702H79.2353C80.3579 12.8702 81.2505 12.5917 81.913 12.0317C82.5755 11.4746 82.9082 10.7214 82.9082 9.78052C82.9082 8.76863 82.5838 8.00402 81.938 7.48954V7.49239Z" fill="white"/>
<path d="M103.096 6.71925H93.0276V11.4121H101.951V14.3056H93.0276V19.1804H103.223V22.0739H89.9258V3.82568H103.096V6.71925Z" fill="white"/>
<path d="M123.992 22.0738H120.688L118.883 17.6681H110.468L108.638 22.0738H105.434L113.264 3.69482H116.161L123.992 22.0738ZM114.662 7.52639L111.61 14.8257H117.736L114.659 7.52639H114.662Z" fill="white"/>
<path d="M129.56 9.53586C129.68 9.79736 129.896 10.039 130.209 10.2664C130.522 10.4937 130.958 10.7012 131.509 10.8917C132.061 11.0821 132.762 11.2839 133.613 11.4914C134.547 11.7359 135.376 12.0031 136.1 12.2987C136.823 12.5943 137.422 12.9553 137.896 13.3816C138.373 13.808 138.733 14.3026 138.98 14.8682C139.226 15.4338 139.348 16.099 139.348 16.8636C139.348 17.7334 139.193 18.5065 138.883 19.183C138.572 19.8623 138.14 20.4336 137.585 20.9026C137.031 21.3716 136.363 21.7269 135.587 21.9714C134.808 22.2158 133.954 22.3352 133.02 22.3352C131.648 22.3352 130.334 22.0964 129.078 21.6189C127.822 21.1414 126.664 20.4052 125.594 19.4161L127.476 17.1222C128.341 17.8868 129.211 18.4752 130.093 18.8817C130.974 19.291 131.975 19.4956 133.092 19.4956C134.057 19.4956 134.824 19.2881 135.393 18.8703C135.961 18.4525 136.244 17.8897 136.244 17.1762C136.244 16.8465 136.188 16.5509 136.077 16.2894C135.967 16.0279 135.761 15.7891 135.465 15.5731C135.168 15.3571 134.761 15.1524 134.242 14.9592C133.724 14.7687 133.048 14.5669 132.216 14.3594C131.265 14.1349 130.42 13.8819 129.68 13.6033C128.94 13.3248 128.321 12.978 127.82 12.5602C127.318 12.1423 126.935 11.6392 126.672 11.048C126.409 10.4568 126.278 9.73483 126.278 8.88495C126.278 8.08623 126.428 7.35858 126.73 6.70766C127.032 6.05675 127.448 5.49396 127.978 5.02496C128.507 4.55596 129.145 4.19498 129.888 3.942C130.63 3.69187 131.445 3.56396 132.327 3.56396C133.633 3.56396 134.805 3.76009 135.847 4.1495C136.89 4.54175 137.868 5.11023 138.783 5.85779L137.106 8.28236C136.294 7.67408 135.487 7.21077 134.691 6.88674C133.893 6.56554 133.089 6.40353 132.277 6.40353C131.362 6.40353 130.65 6.61671 130.143 7.04307C129.635 7.46943 129.38 7.98675 129.38 8.59502C129.38 8.95885 129.439 9.27436 129.558 9.53301L129.56 9.53586Z" fill="white"/>
<path d="M157.983 14.1749C157.983 15.5307 157.8 16.7217 157.437 17.7449C157.074 18.771 156.561 19.6266 155.899 20.3116C155.236 20.9995 154.438 21.5111 153.495 21.8494C152.556 22.1876 151.5 22.3582 150.33 22.3582C149.16 22.3582 148.134 22.1876 147.203 21.8494C146.272 21.5111 145.473 21.0023 144.813 20.323C144.154 19.6465 143.644 18.808 143.289 17.8075C142.931 16.8069 142.754 15.6472 142.754 14.3284V3.82568H145.856V14.2005C145.856 15.9031 146.258 17.1992 147.059 18.086C147.86 18.9729 148.969 19.4163 150.382 19.4163C151.796 19.4163 152.88 18.9899 153.681 18.14C154.482 17.2902 154.884 16.0196 154.884 14.3341V3.82568H157.986V14.1749H157.983Z" fill="white"/>
<path d="M173.696 22.0739L169.311 15.7126H165.383V22.0739H162.281V3.82568H170.212C171.229 3.82568 172.147 3.95928 172.97 4.22931C173.791 4.49933 174.486 4.88022 175.055 5.37764C175.623 5.87221 176.058 6.48049 176.363 7.20246C176.668 7.92443 176.82 8.72883 176.82 9.61282C176.82 10.3774 176.715 11.0596 176.502 11.6593C176.291 12.2591 175.997 12.7906 175.626 13.2483C175.251 13.7087 174.808 14.101 174.29 14.4222C173.771 14.7434 173.2 14.9906 172.574 15.164L177.378 22.0739H173.691H173.696ZM172.676 7.49239C172.03 6.97791 171.121 6.71925 169.949 6.71925H165.383V12.8702H169.974C171.096 12.8702 171.989 12.5917 172.651 12.0317C173.314 11.4746 173.646 10.7214 173.646 9.78052C173.646 8.76863 173.322 8.00402 172.676 7.48954V7.49239Z" fill="white"/>
<path d="M193.83 6.71925H183.762V11.4121H192.685V14.3056H183.762V19.1804H193.957V22.0739H180.66V3.82568H193.83V6.71925Z" fill="white"/>
<path d="M220.728 16.5341C220.271 17.654 219.622 18.6232 218.785 19.4419C217.945 20.2576 216.944 20.9028 215.786 21.3718C214.624 21.8408 213.349 22.0768 211.96 22.0768H205.324V3.82568H211.96C213.349 3.82568 214.624 4.05592 215.786 4.51639C216.947 4.97686 217.948 5.6164 218.785 6.43217C219.625 7.25078 220.274 8.21436 220.728 9.32574C221.186 10.4371 221.416 11.6366 221.416 12.9242C221.416 14.2118 221.186 15.4142 220.728 16.5341ZM217.69 10.4769C217.393 9.71799 216.975 9.05855 216.443 8.50144C215.908 7.94433 215.256 7.5066 214.494 7.19109C213.729 6.87843 212.878 6.71925 211.944 6.71925H208.426V19.1804H211.944C212.878 19.1804 213.726 19.0269 214.494 18.7227C215.259 18.4157 215.908 17.9894 216.443 17.4408C216.978 16.8922 217.393 16.2356 217.69 15.4767C217.987 14.7178 218.136 13.885 218.136 12.9754C218.136 12.0658 217.987 11.2358 217.69 10.4769Z" fill="white"/>
<path d="M241.016 22.0738H237.711L235.907 17.6681H227.491L225.661 22.0738H222.457L230.288 3.69482H233.185L241.016 22.0738ZM231.685 7.52639L228.633 14.8257H234.759L231.682 7.52639H231.685Z" fill="white"/>
<path d="M249.303 22.0735H246.152V6.79844H240.508V3.82812H254.947V6.79844H249.303V22.0764V22.0735Z" fill="white"/>
<path d="M273 22.0738H269.696L267.891 17.6681H259.475L257.646 22.0738H254.441L262.272 3.69482H265.169L273 22.0738ZM263.669 7.52639L260.617 14.8257H266.744L263.667 7.52639H263.669Z" fill="white"/>
</g>
<defs>
<linearGradient id="paint0_linear_320_32485" x1="10.921" y1="22.7276" x2="26.2556" y2="-3.17179" gradientUnits="userSpaceOnUse">
<stop stop-color="#8455FF"/>
<stop offset="1" stop-color="#00B2FF"/>
</linearGradient>
<linearGradient id="paint1_linear_320_32485" x1="21.7359" y1="5.78971" x2="24.558" y2="-5.57024" gradientUnits="userSpaceOnUse">
<stop offset="0.07" stop-color="white"/>
<stop offset="0.89" stop-color="#009BFF"/>
</linearGradient>
<linearGradient id="paint2_linear_320_32485" x1="32.1152" y1="7.07448" x2="41.6935" y2="-0.911242" gradientUnits="userSpaceOnUse">
<stop offset="0.07" stop-color="white"/>
<stop offset="0.89" stop-color="#009BFF"/>
</linearGradient>
<linearGradient id="paint3_linear_320_32485" x1="19.8827" y1="14.2315" x2="34.6572" y2="19.2182" gradientUnits="userSpaceOnUse">
<stop stop-color="#4036BD"/>
<stop offset="0.98" stop-color="#539AFF"/>
</linearGradient>
<clipPath id="clip0_320_32485">
<rect width="273" height="27" fill="white" transform="translate(0 0.5)"/>
</clipPath>
</defs>
</svg>
