<svg width="31" height="31" viewBox="0 0 31 31" fill="none" xmlns="http://www.w3.org/2000/svg">
<path d="M26.7109 6.08508V25.2763C26.7109 25.715 26.5366 26.1358 26.2264 26.4461C25.9161 26.7564 25.4953 26.9307 25.0565 26.9307H5.86535C5.42657 26.9307 5.00577 26.7564 4.6955 26.4461C4.38524 26.1358 4.21094 25.715 4.21094 25.2763V6.08508C4.21094 5.6463 4.38524 5.22549 4.6955 4.91523C5.00577 4.60497 5.42657 4.43066 5.86535 4.43066H25.0565C25.4953 4.43066 25.9161 4.60497 26.2264 4.91523C26.5366 5.22549 26.7109 5.6463 26.7109 6.08508ZM10.8286 13.0336H7.51976V23.6218H10.8286V13.0336ZM11.1264 9.3939C11.1281 9.14361 11.0806 8.89543 10.9864 8.66354C10.8922 8.43163 10.7533 8.22055 10.5775 8.04235C10.4018 7.86414 10.1927 7.72229 9.96208 7.62491C9.73151 7.52753 9.48402 7.47651 9.23373 7.47478H9.17417C8.66519 7.47478 8.17706 7.67697 7.81715 8.03688C7.45725 8.39678 7.25505 8.88492 7.25505 9.3939C7.25505 9.90288 7.45725 10.391 7.81715 10.7509C8.17706 11.1108 8.66519 11.313 9.17417 11.313C9.42448 11.3192 9.67354 11.276 9.90713 11.1858C10.1407 11.0957 10.3543 10.9604 10.5356 10.7877C10.7169 10.615 10.8623 10.4083 10.9637 10.1794C11.0651 9.95043 11.1204 9.70376 11.1264 9.45346V9.3939ZM23.4021 17.1895C23.4021 14.0064 21.3771 12.7689 19.3653 12.7689C18.7067 12.7359 18.0508 12.8762 17.4633 13.1758C16.8757 13.4754 16.377 13.9238 16.0168 14.4763H15.9242V13.0336H12.8139V23.6218H16.1227V17.9902C16.0749 17.4134 16.2566 16.8411 16.6283 16.3975C17 15.9539 17.5317 15.6749 18.108 15.6211H18.2337C19.2859 15.6211 20.0668 16.2829 20.0668 17.9505V23.6218H23.3756L23.4021 17.1895Z" fill="#3A61FF"/>
</svg>
