<?xml version="1.0" encoding="UTF-8"?><svg id="Layer_1" xmlns="http://www.w3.org/2000/svg" xmlns:xlink="http://www.w3.org/1999/xlink" viewBox="0 0 1440 1350"><defs><clipPath id="clippath"><rect width="1440" height="1350" style="fill:none;"/></clipPath><clipPath id="clippath-1"><rect y="-410.01" width="1627.38" height="1797.88" style="fill:none;"/></clipPath><linearGradient id="linear-gradient" x1="66.51" y1="3841.04" x2="1776.54" y2="3841.04" gradientTransform="translate(1724.22 -3375.68) rotate(-180) scale(1 -1)" gradientUnits="userSpaceOnUse"><stop offset="0" stop-color="#5b70fd"/><stop offset="1" stop-color="#a87ffd"/></linearGradient><linearGradient id="linear-gradient-2" x1="1644.83" y1="309.1" x2="-169.34" y2="1356.51" gradientTransform="translate(0 1352) scale(1 -1)" gradientUnits="userSpaceOnUse"><stop offset="0" stop-color="#cdd2fa"/><stop offset="1" stop-color="#dfd8fd"/></linearGradient><linearGradient id="linear-gradient-3" x1="-203.66" y1="678.92" x2="1667.9" y2="-2.28" gradientTransform="translate(0 1352) scale(1 -1)" gradientUnits="userSpaceOnUse"><stop offset="0" stop-color="#dad7fc"/><stop offset="1" stop-color="#dfdafd"/></linearGradient><linearGradient id="linear-gradient-4" x1="-52.41" y1="415.14" x2="1657.71" y2="415.14" gradientTransform="translate(0 1352) scale(1 -1)" gradientUnits="userSpaceOnUse"><stop offset="0" stop-color="#cfdffb"/><stop offset="1" stop-color="#dcd9fd"/></linearGradient></defs><g style="clip-path:url(#clippath);"><g style="clip-path:url(#clippath-1);"><path d="m1657.71,1356H-52.32V-425.28h1710.03v1781.28Z" style="fill:url(#linear-gradient);"/><path d="m1657.71-.62c-116.85-77.93-240.47-47.2-356.52-68.58-121.57-22.44,81.23-81.94-299.43-70.63-380.66,11.31-697.64-117.83-801.67-138.05-104.03-20.22-252.59,17.72-252.59,17.72v917.45l1710.21,3.3V-.62Z" style="fill:#cfd3fc; fill-rule:evenodd;"/><path d="m1657.71,178.04c-69.56-20.22-138.76-53.79-179.82-80.25-67.6-43.55-142.24-.8-243.77-21.82-101.53-21.02-200.66-87.82-346.9-159.6-71.43-35.09-268.8-52.9-436.95-30.28-209.48,28.14-188.64-39.63-292.4-73.66-129.94-42.57-210.37-19.33-210.37-19.33l.18,1142.25,1710.03,85.23V178.04Z" style="fill:url(#linear-gradient-2); fill-rule:evenodd;"/><path d="m1668.84,904.23c-30.37,3.38-67.87,8.55-120.41-4.19-32.6-7.93-56.02-45.69-103.23-66.53-37.32-16.48-50.23-8.28-92.27-22.44-42.04-14.16-37.32-38.56-92.09-58.6-55.58-20.31-96.63-5.97-183.65-32.33-87.02-26.36-142.06-124.69-217.32-160.32-103.67-48.99-138.23,3.03-260.16-62.88-88.8-48.01-88.71-201.64-248.4-239.49-159.69-37.85-392.77-30.01-392.77-30.01l.27,1124.26h1710.03v-447.46Z" style="fill:url(#linear-gradient-3); fill-rule:evenodd;"/><path d="m1657.71,1101.99c-19.06-33.31-69.29-74.01-223.19-107.68-236.02-51.66-334.44,53.44-603.05-18.08-103.58-27.61-155.51-140.1-286.16-206.63-130.66-66.53-297.38-51.39-399.9-82.03-102.51-30.64-63.95-54.77-146.15-133.86-14.96-14.43-32.69-26.18-51.66-35.98v838.27h1710.03l.09-254.01Z" style="fill:url(#linear-gradient-4); fill-rule:evenodd; isolation:isolate;"/></g></g></svg>