<?xml version="1.0" encoding="UTF-8"?><svg id="Layer_1" xmlns="http://www.w3.org/2000/svg" viewBox="0 0 214 48.72"><g id="Gartner_Logo_-_New_Gartner_Blue"><path d="M212.9,15.8l-.6,7.4h-3c-4.8,0-7.3,3.9-7.3,7.6v16.7h-8.5V15.8h8.1l.2,4c1.7-2.7,4.7-4,8.3-4h2.8Z" style="fill:#fff; stroke-width:0px;"/><path d="M153.6,47.5h-8.6v-16.7c0-3.5-.3-7.9-5.2-7.9s-6.6,3.4-6.6,7.4v17.2h-8.6V15.8h7.9l.2,4c1.7-2.7,4.9-4.8,9.5-4.8,8.6,0,11.3,6.2,11.3,12.6v19.9h.1Z" style="fill:#fff; stroke-width:0px;"/><path d="M120.9,40.1l-.6,7.2c-2.1.6-3.9.7-6.1.7-8.1,0-10.4-3.7-10.4-11.1V6.9h8.6v8.9h8.5l-.6,7.4h-7.9v13.1c0,3,.8,4.6,3.9,4.6,1.3,0,2.7-.2,4.6-.8" style="fill:#fff; stroke-width:0px;"/><path d="M101,15.8l-.7,7.4h-2.3c-4.8,0-7.2,3.9-7.2,7.6v16.7h-8.6V15.8h8.1l.2,4c1.7-2.7,4.7-4,8.4-4h2.1Z" style="fill:#fff; stroke-width:0px;"/><path d="M43.6,44c-5.8,3.1-11.6,4.9-19.3,4.7C10.2,48.2,0,39.4,0,24.6S10.3.3,24.4,0c7.1-.1,13.5,1.7,18.5,6.2l-6,6.1c-3.1-2.6-7.6-4.2-13.1-3.9-8.8.3-14.2,6.8-14.3,15.6-.1,9.6,5.8,16.2,15,16.5,4.3.1,7.4-.5,10.1-1.7v-9.8h-9.6l.6-8.1h18v23.1Z" style="fill:#fff; stroke-width:0px;"/><path d="M180.9,28.1c-.3-4-3.3-6.5-7.4-6.4-4.2.2-6.9,2.9-7.5,6.4h14.9ZM189.5,34.7h-23.5c.7,4,3.9,6.5,7.8,6.6,3.9.1,6-1.1,8.8-3.9l5.6,4.3c-4,4.9-8.7,6.7-14.2,6.7-9.5,0-16.7-6.7-16.7-16.6s7.1-16.6,16.3-16.6c10.2,0,15.7,6.2,15.7,17.1v2.4h.2,0Z" style="fill:#fff; stroke-width:0px;"/><path d="M68.6,33.7h-1.2c-4,0-11.2.2-11.1,4.4,0,6,12.3,4.1,12.3-3.1,0,0,0-1.3,0-1.3ZM76.9,26.8v20.7h-7.5l-.2-3.1c-2.3,2.9-6.1,3.9-9.9,3.9-5.8,0-11.3-2.9-11.4-9.6-.2-10.5,11.8-11.3,19.4-11.3h1.5v-.4c0-3.5-2.3-5.4-6.6-5.4-3.1,0-6.2,1.2-8.4,3.4l-4.9-5c4.5-3.6,9.1-5,14.1-5,9.5.1,13.9,4.6,13.9,11.8" style="fill:#fff; stroke-width:0px;"/><path d="M208.7,43.5v-1.5h1c.5,0,1.1.1,1.1.7,0,.8-.6.8-1.2.8h-.9ZM208.7,44.2h.9l1.3,2.1h.8l-1.4-2.2c.7-.1,1.3-.5,1.3-1.4,0-1-.6-1.4-1.7-1.4h-1.9v4.9h.7v-2h0ZM209.7,48.1c2.3,0,4.3-1.8,4.3-4.3s-2-4.2-4.3-4.2-4.3,1.8-4.3,4.2c-.1,2.5,1.9,4.3,4.3,4.3M206.2,43.8c0-2,1.5-3.5,3.5-3.5s3.5,1.5,3.5,3.5c0,2.1-1.5,3.6-3.5,3.6s-3.5-1.5-3.5-3.6" style="fill:#fff; stroke-width:0px;"/></g></svg>